<?xml version="1.0"?>
<svg version="1.1" xmlns="http://www.w3.org/2000/svg" width="400px" height="100px" style="border: dashed 2px #aaa"><path fill="#00ff00" d="M38.4892578125,70.361328125q0-0.8544921875,0.5859375-1.08642578125t1.26953125-0.23193359375q1.1962890625,0,2.0263671875,1.07421875t1.57470703125,2.35595703125t1.47705078125,2.35595703125t1.7333984375,1.07421875q0.7568359375,0,1.37939453125-0.37841796875t1.07421875-0.9521484375t0.69580078125-1.2939453125t0.244140625-1.42822265625q0-1.85546875-0.74462890625-3.8330078125t-1.904296875-4.0771484375t-2.45361328125-4.296875t-2.44140625-4.4677734375t-1.904296875-4.62646484375t-0.7568359375-4.74853515625q0-3.5888671875,2.1484375-5.56640625t5.6640625-1.9775390625q1.1962890625,0,2.4169921875,0.341796875t2.24609375,1.025390625t1.67236328125,1.6845703125t0.64697265625,2.34375q0,0.439453125-0.64697265625,0.57373046875t-0.93994140625,0.13427734375q-0.439453125,0-0.9521484375-0.10986328125t-0.6591796875-0.59814453125t-0.4150390625-1.123046875t-0.67138671875-1.18408203125t-0.9521484375-0.9521484375t-1.20849609375-0.40283203125q-1.0986328125,0-1.86767578125,0.45166015625t-1.2451171875,1.20849609375t-0.7080078125,1.69677734375t-0.23193359375,1.94091796875q0,2.34375,0.8056640625,4.72412109375t2.001953125,4.736328125t2.60009765625,4.65087890625t2.60009765625,4.4677734375t2.001953125,4.248046875t0.8056640625,3.9306640625q0,1.66015625-0.78125,2.8076171875t-1.9775390625,1.86767578125t-2.64892578125,1.0498046875t-2.84423828125,0.32958984375q-1.4892578125,0-3.0517578125-0.59814453125t-2.8076171875-1.64794921875t-2.05078125-2.45361328125t-0.8056640625-3.03955078125z M60.453857421875,68.5546875l0-2.294921875q0-1.2451171875,0.06103515625-3.52783203125t0.15869140625-5.0048828125t0.2685546875-5.67626953125t0.390625-5.57861328125t0.52490234375-4.69970703125t0.69580078125-3.076171875q0.244140625-0.5615234375,0.8056640625-0.7080078125t1.0986328125-0.146484375q0.8544921875,0,1.50146484375,0.37841796875t0.64697265625,1.37939453125l-0.439453125,0.48828125q-0.8544921875,5.6396484375-1.0986328125,11.328125t-0.341796875,11.376953125q0.6103515625-0.9521484375,1.37939453125-1.86767578125t1.708984375-1.62353515625t2.0263671875-1.13525390625t2.38037109375-0.42724609375q1.66015625,0,2.74658203125,1.0009765625t1.79443359375,2.60009765625t1.0498046875,3.57666015625t0.52490234375,3.955078125t0.25634765625,3.74755859375t0.2197265625,2.94189453125q-0.4638671875,0.634765625-1.3671875,0.634765625l-0.0732421875,0q-0.390625,0-0.8544921875-0.09765625t-0.6103515625-0.48828125l0.048828125,0.048828125q-0.341796875-0.7568359375-0.4638671875-2.18505859375t-0.1953125-3.1494140625t-0.25634765625-3.52783203125t-0.54931640625-3.271484375t-1.07421875-2.4169921875t-1.904296875-1.0009765625l-0.146484375,0q-1.4404296875,0-2.4169921875,0.87890625q-1.025390625,0.927734375-1.66015625,2.44140625t-0.9765625,3.369140625t-0.52490234375,3.57666015625t-0.28076171875,3.125t-0.244140625,2.06298828125q-0.146484375,0.5615234375-0.86669921875,0.74462890625t-1.23291015625,0.18310546875q-1.1962890625,0-1.953125-0.68359375q-0.5615234375-1.3427734375-0.6591796875-3.3447265625t-0.09765625-3.90625z M83.32177734375,66.357421875q0-1.3916015625,0.35400390625-2.86865234375t1.123046875-2.6611328125t1.94091796875-1.9287109375t2.83203125-0.74462890625q1.2451171875,0,2.62451171875,0.42724609375t2.52685546875,1.220703125t1.86767578125,1.94091796875t0.72021484375,2.5634765625q0,1.708984375-0.62255859375,3.2470703125t-1.74560546875,2.74658203125t-2.62451171875,1.904296875t-3.25927734375,0.69580078125q-1.4404296875,0-2.5146484375-0.52490234375t-1.79443359375-1.40380859375t-1.07421875-2.0751953125t-0.35400390625-2.5390625z M86.91064453125,66.30859375q0,0.439453125,0.13427734375,1.2939453125t0.40283203125,1.67236328125t0.69580078125,1.416015625t1.03759765625,0.54931640625q1.2939453125-0.146484375,2.13623046875-0.84228515625t1.3671875-1.69677734375t0.732421875-2.1728515625t0.20751953125-2.2216796875q0-1.3427734375-0.52490234375-2.24609375t-1.72119140625-1.46484375q0,0.048828125,0.048828125,0.048828125t0.048828125-0.048828125l-0.6103515625-0.146484375q-0.244140625-0.09765625-0.59814453125-0.2197265625t-0.69580078125-0.537109375q-0.9521484375,0.341796875-1.47705078125,0.87890625t-0.79345703125,1.30615234375t-0.32958984375,1.84326171875t-0.06103515625,2.587890625z M101.81958007812,59.0576171875q0-1.0009765625,0.35400390625-1.6845703125t1.50146484375-0.68359375q0.439453125,0,1.0986328125,0.13427734375t0.7568359375,0.67138671875q0.244140625,1.4404296875,0.2685546875,3.125t0.1708984375,3.173828125q0.5615234375-1.0986328125,1.4404296875-2.3681640625t2.001953125-2.34375t2.44140625-1.7822265625t2.685546875-0.7080078125q0.09765625,0,0.3662109375,0.0732421875t0.50048828125,0.20751953125t0.28076171875,0.30517578125t-0.2685546875,0.3173828125q-0.09765625,0.29296875-0.4150390625,0.35400390625t-0.5615234375,0.06103515625q-0.146484375,0-0.4638671875-0.1220703125q-1.806640625,0.9521484375-3.076171875,2.587890625t-2.0751953125,3.62548828125t-1.171875,4.19921875t-0.3662109375,4.30908203125q0,1.0498046875-0.47607421875,1.26953125t-1.52587890625,0.2197265625q-0.5615234375,0-1.18408203125-0.1220703125t-0.86669921875-0.78125q-0.439453125-1.3916015625-0.72021484375-3.1982421875t-0.42724609375-3.72314453125t-0.20751953125-3.77197265625t-0.06103515625-3.3447265625z M118.1689453125,50.390625q0-0.341796875,0.732421875-0.5859375t1.66015625-0.40283203125t1.79443359375-0.23193359375t1.18408203125-0.1220703125q0-0.6591796875,0.048828125-1.33056640625t0.2685546875-1.1962890625t0.69580078125-0.84228515625t1.33056640625-0.3173828125q0.7080078125,0,1.07421875,0.1708984375t0.78125,0.7080078125q0.09765625,0.29296875,0.09765625,0.5615234375l0,0.81787109375t-0.048828125,0.84228515625q0.9033203125-0.09765625,1.79443359375-0.23193359375t1.79443359375-0.13427734375q0.6591796875,0,0.9033203125,0.0244140625t0.48828125,0.5859375q0.1953125,0.5615234375-0.47607421875,0.8544921875t-1.611328125,0.439453125t-1.86767578125,0.2197265625t-1.123046875,0.0732421875q-0.29296875,4.19921875-0.59814453125,8.3251953125t-0.30517578125,8.3740234375q0,1.904296875,0.1220703125,3.9306640625t0.68359375,3.8330078125q0.146484375,0.5615234375,0.48828125,1.0498046875t0.341796875,1.0498046875q0,0.341796875-0.2685546875,0.537109375t-0.64697265625,0.32958984375t-0.7568359375,0.15869140625t-0.62255859375,0.0244140625q-1.5380859375,0-2.34375-1.1474609375t-1.15966796875-2.74658203125t-0.37841796875-3.28369140625t-0.0244140625-2.734375q0-2.1484375,0.08544921875-4.39453125t0.20751953125-4.443359375t0.341796875-4.296875t0.5126953125-3.90625q-0.8544921875,0.09765625-1.67236328125,0.2197265625t-1.67236328125,0.1220703125q-0.1953125,0-0.52490234375-0.0244140625t-0.62255859375-0.1220703125t-0.50048828125-0.2685546875t-0.20751953125-0.48828125z M136.83764648438,65.3076171875q0-2.24609375,0.52490234375-4.40673828125t0.89111328125-4.30908203125q0.09765625-0.5615234375,0.76904296875-0.69580078125t1.13525390625-0.13427734375q0.8056640625,0,1.2939453125,0.244140625q0.1953125,0.09765625,0.3662109375,0.2197265625t0.1708984375,0.3173828125q0,2.099609375-0.50048828125,4.1015625t-0.50048828125,4.248046875q0,0.7568359375,0.10986328125,1.42822265625t0.20751953125,1.33056640625l0.146484375,0.7080078125q0,0.1953125,0.0244140625,0.341796875t0.0732421875,0.341796875q0,0.439453125-0.62255859375,0.59814453125t-1.08642578125,0.15869140625q-0.7080078125,0-1.30615234375-0.28076171875t-0.93994140625-0.96435546875l-0.341796875-0.7080078125q-0.29296875-0.5615234375-0.29296875-1.25732421875t-0.1220703125-1.28173828125z M138.40014648438,50.6103515625l0-0.4638671875q0-1.1474609375,0.57373046875-2.05078125t1.72119140625-0.9033203125q0.146484375,0,0.28076171875,0.0244140625t0.28076171875,0.0244140625q0.29296875,0.048828125,0.76904296875,0.23193359375t0.47607421875,0.57373046875l0,0.048828125q-0.09765625,0.1953125-0.1220703125,0.40283203125t-0.1220703125,0.35400390625l0.048828125-0.048828125q-0.29296875,0.7568359375-0.47607421875,1.220703125t-0.40283203125,0.74462890625t-0.54931640625,0.40283203125t-0.93994140625,0.1220703125q-0.09765625,0-0.341796875-0.0244140625t-0.52490234375-0.09765625t-0.47607421875-0.1953125t-0.1953125-0.3662109375z M147.49853515625,55.6884765625q0-0.244140625,0.37841796875-0.4150390625t0.9033203125-0.244140625t1.0009765625-0.1220703125t0.72021484375-0.048828125q0.09765625-0.6591796875,0.28076171875-1.7822265625t0.45166015625-2.40478515625t0.67138671875-2.57568359375t0.9765625-2.34375t1.35498046875-1.72119140625t1.8310546875-0.67138671875l-0.048828125,0q0.341796875-0.048828125,0.67138671875-0.0732421875t0.67138671875-0.0244140625q0.8056640625,0,1.74560546875,0.3173828125t1.74560546875,0.89111328125t1.35498046875,1.37939453125t0.54931640625,1.708984375q0,0.7080078125-0.35400390625,1.52587890625t-1.23291015625,0.81787109375q-0.29296875,0-0.59814453125-0.146484375t-0.57373046875-0.3173828125q0.09765625-0.5615234375,0.09765625-1.123046875q0-0.29296875-0.0244140625-0.5615234375q-0.0732421875-0.8544921875-0.3662109375-1.50146484375t-0.84228515625-1.025390625t-1.30615234375-0.28076171875q-1.0009765625,0.146484375-1.50146484375,1.220703125t-0.69580078125,2.55126953125t-0.244140625,3.0029296875t-0.1953125,2.47802734375q1.1474609375,0.09765625,1.94091796875,0.09765625l1.98974609375,0q0.1953125,0,0.67138671875,0.0244140625t0.927734375,0.09765625t0.8056640625,0.25634765625t0.35400390625,0.47607421875q0,0.244140625-0.1953125,0.42724609375t-0.47607421875,0.25634765625t-0.5859375,0.09765625t-0.50048828125,0.0244140625q-0.8544921875,0-1.45263671875-0.0732421875t-1.1474609375-0.13427734375t-1.1474609375-0.06103515625t-1.40380859375,0.1708984375q-0.244140625,2.7099609375-0.390625,5.37109375t-0.146484375,5.37109375q0,4.248046875,0.2685546875,8.3251953125t0.9765625,8.2763671875q0.09765625,0.390625,0.1708984375,0.89111328125t0.0732421875,0.96435546875q0,0.439453125-0.2685546875,0.72021484375t-0.67138671875,0.40283203125t-0.830078125,0.1708984375t-0.76904296875,0.048828125q-1.3916015625,0-1.953125-0.42724609375t-0.8056640625-1.72119140625q-0.6103515625-3.4423828125-0.78125-6.94580078125t-0.1708984375-7.06787109375q0-3.4912109375,0.25634765625-6.97021484375t0.64697265625-6.92138671875q-0.1953125,0-0.67138671875,0.0244140625t-0.9521484375,0t-0.830078125-0.1708984375t-0.35400390625-0.5126953125z M165.50805664062,60.44921875q0-0.7080078125,0.40283203125-0.927734375t1.01318359375-0.2197265625q1.0009765625,0,1.52587890625,0.37841796875t0.52490234375,1.33056640625q0,1.1474609375,0.1708984375,2.86865234375t0.50048828125,3.3447265625t0.78125,2.79541015625t0.93994140625,1.171875q0.9033203125,0,1.59912109375-1.3916015625t1.220703125-3.41796875t0.9033203125-4.35791015625t0.52490234375-4.16259765625q0.09765625-1.0009765625,0.47607421875-1.45263671875t1.37939453125-0.45166015625q1.1474609375,0,1.67236328125,0.9521484375t0.67138671875,2.34375q0.1220703125,1.1962890625,0.1220703125,2.490234375l0,0.4150390625l0,0.9765625q0,0.927734375,0.0244140625,1.66015625l0.7080078125,14.9658203125l0.09765625,2.490234375q0.048828125,0.341796875,0.0732421875,0.64697265625t0.0244140625,0.64697265625q0,1.3916015625-0.59814453125,1.79443359375t-1.94091796875,0.40283203125q-0.29296875,0-0.74462890625-0.048828125t-0.87890625-0.1953125t-0.732421875-0.40283203125t-0.30517578125-0.64697265625l0.09765625-0.244140625q0.1220703125-1.46484375,0.1220703125-3.076171875l0-0.5126953125q-0.0244140625-1.904296875-0.1220703125-3.857421875t-0.2197265625-3.90625t-0.1220703125-3.759765625q-0.341796875,0.7568359375-0.79345703125,1.5625t-1.0498046875,1.45263671875t-1.35498046875,1.07421875t-1.708984375,0.42724609375q-1.3916015625,0-2.294921875-0.732421875t-1.40380859375-1.904296875t-0.72021484375-2.62451171875t-0.29296875-2.9052734375t-0.09765625-2.77099609375t-0.1953125-2.2216796875z"/><path fill="#" d="M192.833984375,55.400390625q0-2.3515625,0.1298828125-4.6484375t0.3212890625-4.6484375q0.0546875-0.615234375,0.068359375-1.189453125t0.1298828125-1.0048828125t0.41015625-0.68359375t0.9091796875-0.2529296875q0.396484375,0,0.8271484375,0.13671875t0.4306640625,0.642578125q0,1.900390625-0.1572265625,3.7392578125t-0.2119140625,3.6572265625q1.490234375-1.681640625,3.185546875-3.1376953125t3.595703125-2.8779296875q0.2734375-0.19140625,0.697265625-0.205078125q0.13671875,0,0.2392578125,0.013671875t0.2119140625,0.041015625q0.13671875,0.0546875,0.2802734375,0.1298828125t0.1435546875,0.2119140625q0,0.109375-0.123046875,0.19140625q-1.421875,1.1484375-2.8095703125,2.337890625t-2.6455078125,2.54296875q0.1640625,0.314453125,0.2802734375,0.587890625t0.2529296875,0.587890625q1.1484375,2.720703125,1.9619140625,5.5712890625t1.7294921875,5.6533203125q0.08203125,0.314453125,0.2392578125,0.6494140625t0.2939453125,0.669921875t0.2392578125,0.62890625t0.1025390625,0.4853515625q0,0.24609375-0.1572265625,0.3896484375t-0.3623046875,0.2255859375t-0.4443359375,0.109375t-0.4443359375,0.02734375q-0.478515625,0-0.8544921875-0.13671875t-0.5947265625-0.615234375q-1.01171875-3.2265625-1.9482421875-6.453125t-1.8935546875-6.5078125q-0.314453125,0.314453125-0.62890625,0.7861328125t-0.57421875,0.8681640625q0,2.05078125,0.095703125,4.07421875t0.328125,4.07421875q0.0546875,0.587890625,0.1845703125,1.17578125t0.1298828125,1.203125q0,0.451171875-0.46484375,0.62890625t-1.025390625,0.177734375q-0.615234375,0-0.9228515625-0.123046875t-0.4375-0.3212890625t-0.1572265625-0.4375t-0.08203125-0.4580078125q-0.314453125-2.16015625-0.396484375-4.2724609375t-0.08203125-4.2451171875z M206.84314453125,59.4609375q0-0.95703125,0.2119140625-2.255859375t0.7177734375-2.4609375t1.3330078125-1.9755859375t2.0849609375-0.8134765625q1.17578125,0,1.763671875,0.6767578125t0.587890625,1.8251953125q0,0.751953125-0.2802734375,1.6474609375t-0.7998046875,1.6953125t-1.23046875,1.3330078125t-1.5859375,0.533203125l-0.35546875-0.02734375q0,0.369140625,0.109375,0.9912109375t0.3212890625,1.2373046875t0.546875,1.080078125t0.8134765625,0.46484375q0.697265625,0,1.33984375-0.560546875t1.216796875-1.244140625t1.06640625-1.244140625t0.90234375-0.560546875q0.21875,0,0.451171875,0.068359375t0.259765625,0.3828125q0,0.19140625-0.1025390625,0.314453125t-0.1845703125,0.2734375q-0.423828125,0.724609375-0.9228515625,1.380859375t-1.1279296875,1.189453125t-1.3740234375,0.8408203125t-1.6474609375,0.3076171875q-1.17578125,0-1.955078125-0.4169921875t-1.2578125-1.12109375t-0.6904296875-1.626953125t-0.2119140625-1.9345703125z M209.29041015625,58.421875l0.3828125,0.341796875q0.2734375,0.24609375,0.546875,0.109375t0.4921875-0.4990234375t0.4033203125-0.8955078125t0.328125-1.09375t0.2119140625-1.09375t0.068359375-0.888671875l0-0.46484375t-0.041015625-0.4921875t-0.1435546875-0.3896484375t-0.3212890625-0.1982421875q-0.068359375-0.013671875-0.123046875-0.013671875q-0.46484375,0-0.79296875,0.587890625q-0.35546875,0.65625-0.57421875,1.5927734375t-0.314453125,1.9208984375t-0.123046875,1.4765625z M218.2683203125,59.4609375q0-0.95703125,0.2119140625-2.255859375t0.7177734375-2.4609375t1.3330078125-1.9755859375t2.0849609375-0.8134765625q1.17578125,0,1.763671875,0.6767578125t0.587890625,1.8251953125q0,0.751953125-0.2802734375,1.6474609375t-0.7998046875,1.6953125t-1.23046875,1.3330078125t-1.5859375,0.533203125l-0.35546875-0.02734375q0,0.369140625,0.109375,0.9912109375t0.3212890625,1.2373046875t0.546875,1.080078125t0.8134765625,0.46484375q0.697265625,0,1.33984375-0.560546875t1.216796875-1.244140625t1.06640625-1.244140625t0.90234375-0.560546875q0.21875,0,0.451171875,0.068359375t0.259765625,0.3828125q0,0.19140625-0.1025390625,0.314453125t-0.1845703125,0.2734375q-0.423828125,0.724609375-0.9228515625,1.380859375t-1.1279296875,1.189453125t-1.3740234375,0.8408203125t-1.6474609375,0.3076171875q-1.17578125,0-1.955078125-0.4169921875t-1.2578125-1.12109375t-0.6904296875-1.626953125t-0.2119140625-1.9345703125z M220.7155859375,58.421875l0.3828125,0.341796875q0.2734375,0.24609375,0.546875,0.109375t0.4921875-0.4990234375t0.4033203125-0.8955078125t0.328125-1.09375t0.2119140625-1.09375t0.068359375-0.888671875l0-0.46484375t-0.041015625-0.4921875t-0.1435546875-0.3896484375t-0.3212890625-0.1982421875q-0.068359375-0.013671875-0.123046875-0.013671875q-0.46484375,0-0.79296875,0.587890625q-0.35546875,0.65625-0.57421875,1.5927734375t-0.314453125,1.9208984375t-0.123046875,1.4765625z M229.69349609375,53.951171875q0-0.642578125,0.2529296875-0.9501953125t0.9228515625-0.3076171875q0.396484375,0,0.7451171875,0.1640625t0.3486328125,0.697265625q0.0546875,0.779296875,0.0546875,1.6337890625t0.150390625,1.6201171875q0.341796875-0.560546875,0.7724609375-1.12109375t0.9501953125-0.998046875t1.134765625-0.7041015625t1.33984375-0.2666015625q0.984375,0,1.66796875,0.41015625t1.1279296875,1.06640625t0.642578125,1.4833984375t0.1982421875,1.6611328125q0,1.28515625-0.3896484375,2.0986328125t-1.0322265625,1.2783203125t-1.4560546875,0.62890625t-1.6337890625,0.1640625q-0.724609375,0-1.353515625-0.2802734375t-0.875-1.0595703125q0-0.21875,0.3212890625-0.2734375t0.4580078125-0.0546875q0.451171875,0,0.669921875,0.24609375q0.1640625,0.19140625,0.3623046875,0.3896484375t0.4169921875,0.1982421875q0.423828125,0,0.888671875-0.2392578125t0.8544921875-0.62890625t0.65625-0.9228515625t0.2666015625-1.09375q0-0.478515625-0.08203125-1.189453125t-0.2802734375-1.3671875t-0.546875-1.134765625t-0.8818359375-0.478515625q-0.806640625,0-1.4560546875,0.73828125t-1.080078125,1.77734375t-0.669921875,2.16015625t-0.2392578125,1.873046875t0.095703125,1.900390625t0.1982421875,2.3857421875t0.1982421875,2.3857421875t0.095703125,1.900390625q0,0.19140625-0.1572265625,0.3076171875t-0.3759765625,0.1845703125t-0.4443359375,0.08203125t-0.3349609375,0.013671875q-0.369140625,0-0.7724609375-0.08203125t-0.5537109375-0.505859375q-0.19140625-0.669921875-0.35546875-1.9072265625t-0.2939453125-2.734375t-0.2255859375-3.14453125t-0.1640625-3.1787109375t-0.1025390625-2.802734375t-0.0341796875-2.0234375z M248.12783203125,58.572265625q0-1.2578125,0.2939453125-2.4677734375t0.4990234375-2.4130859375q0.0546875-0.314453125,0.4306640625-0.3896484375t0.6357421875-0.0751953125q0.451171875,0,0.724609375,0.13671875q0.109375,0.0546875,0.205078125,0.123046875t0.095703125,0.177734375q0,1.17578125-0.2802734375,2.296875t-0.2802734375,2.37890625q0,0.423828125,0.0615234375,0.7998046875t0.1162109375,0.7451171875l0.08203125,0.396484375q0,0.109375,0.013671875,0.19140625t0.041015625,0.19140625q0,0.24609375-0.3486328125,0.3349609375t-0.6083984375,0.0888671875q-0.396484375,0-0.7314453125-0.1572265625t-0.5263671875-0.5400390625l-0.19140625-0.396484375q-0.1640625-0.314453125-0.1640625-0.7041015625t-0.068359375-0.7177734375z M249.00283203125,50.341796875l0-0.259765625q0-0.642578125,0.3212890625-1.1484375t0.9638671875-0.505859375q0.08203125,0,0.1572265625,0.013671875t0.1572265625,0.013671875q0.1640625,0.02734375,0.4306640625,0.1298828125t0.2666015625,0.3212890625l0,0.02734375q-0.0546875,0.109375-0.068359375,0.2255859375t-0.068359375,0.1982421875l0.02734375-0.02734375q-0.1640625,0.423828125-0.2666015625,0.68359375t-0.2255859375,0.4169921875t-0.3076171875,0.2255859375t-0.5263671875,0.068359375q-0.0546875,0-0.19140625-0.013671875t-0.2939453125-0.0546875t-0.2666015625-0.109375t-0.109375-0.205078125z M253.5373828125,50.21875q0-0.19140625,0.41015625-0.328125t0.9296875-0.2255859375t1.0048828125-0.1298828125t0.6630859375-0.068359375q0-0.369140625,0.02734375-0.7451171875t0.150390625-0.669921875t0.3896484375-0.4716796875t0.7451171875-0.177734375q0.396484375,0,0.6015625,0.095703125t0.4375,0.396484375q0.0546875,0.1640625,0.0546875,0.314453125l0,0.4580078125t-0.02734375,0.4716796875q0.505859375-0.0546875,1.0048828125-0.1298828125t1.0048828125-0.0751953125q0.369140625,0,0.505859375,0.013671875t0.2734375,0.328125q0.109375,0.314453125-0.2666015625,0.478515625t-0.90234375,0.24609375t-1.0458984375,0.123046875t-0.62890625,0.041015625q-0.1640625,2.3515625-0.3349609375,4.662109375t-0.1708984375,4.689453125q0,1.06640625,0.068359375,2.201171875t0.3828125,2.146484375q0.08203125,0.314453125,0.2734375,0.587890625t0.19140625,0.587890625q0,0.19140625-0.150390625,0.30078125t-0.3623046875,0.1845703125t-0.423828125,0.0888671875t-0.3486328125,0.013671875q-0.861328125,0-1.3125-0.642578125t-0.6494140625-1.5380859375t-0.2119140625-1.8388671875t-0.013671875-1.53125q0-1.203125,0.0478515625-2.4609375t0.1162109375-2.48828125t0.19140625-2.40625t0.287109375-2.1875q-0.478515625,0.0546875-0.9365234375,0.123046875t-0.9365234375,0.068359375q-0.109375,0-0.2939453125-0.013671875t-0.3486328125-0.068359375t-0.2802734375-0.150390625t-0.1162109375-0.2734375z M269.319375,55.373046875q0-0.560546875,0.328125-0.9638671875t0.7998046875-0.65625t1.0322265625-0.3759765625t1.0390625-0.123046875q0.369140625,0,0.984375,0.109375t1.203125,0.328125t1.0185546875,0.57421875t0.4306640625,0.833984375q0,0.21875-0.1640625,0.3896484375t-0.341796875,0.1708984375q-0.369140625,0-0.669921875-0.2392578125t-0.6220703125-0.505859375t-0.7041015625-0.505859375t-0.861328125-0.2392578125t-0.8681640625,0.3076171875t-0.3896484375,0.8134765625q0,0.833984375,0.587890625,1.6337890625t1.2919921875,1.681640625t1.2919921875,1.8525390625t0.587890625,2.146484375q0,0.505859375-0.2119140625,0.8544921875t-0.560546875,0.5673828125t-0.7861328125,0.3349609375t-0.84765625,0.1162109375q-0.451171875,0-1.052734375-0.2119140625t-1.134765625-0.560546875t-0.8955078125-0.8134765625t-0.3623046875-0.970703125q0-0.24609375,0.3486328125-0.314453125t0.5126953125-0.068359375q0.08203125,0,0.2529296875,0.0546875t0.3349609375,0.123046875t0.2939453125,0.150390625t0.1025390625,0.177734375q0.13671875,0.1640625,0.4169921875,0.4853515625t0.560546875,0.51953125t0.4921875,0.1435546875t0.2119140625-0.615234375q0-1.06640625-0.57421875-1.9619140625t-1.2509765625-1.75t-1.2509765625-1.6953125t-0.57421875-1.7978515625z M278.95353515625,58.572265625q0-1.2578125,0.2939453125-2.4677734375t0.4990234375-2.4130859375q0.0546875-0.314453125,0.4306640625-0.3896484375t0.6357421875-0.0751953125q0.451171875,0,0.724609375,0.13671875q0.109375,0.0546875,0.205078125,0.123046875t0.095703125,0.177734375q0,1.17578125-0.2802734375,2.296875t-0.2802734375,2.37890625q0,0.423828125,0.0615234375,0.7998046875t0.1162109375,0.7451171875l0.08203125,0.396484375q0,0.109375,0.013671875,0.19140625t0.041015625,0.19140625q0,0.24609375-0.3486328125,0.3349609375t-0.6083984375,0.0888671875q-0.396484375,0-0.7314453125-0.1572265625t-0.5263671875-0.5400390625l-0.19140625-0.396484375q-0.1640625-0.314453125-0.1640625-0.7041015625t-0.068359375-0.7177734375z M279.82853515625,50.341796875l0-0.259765625q0-0.642578125,0.3212890625-1.1484375t0.9638671875-0.505859375q0.08203125,0,0.1572265625,0.013671875t0.1572265625,0.013671875q0.1640625,0.02734375,0.4306640625,0.1298828125t0.2666015625,0.3212890625l0,0.02734375q-0.0546875,0.109375-0.068359375,0.2255859375t-0.068359375,0.1982421875l0.02734375-0.02734375q-0.1640625,0.423828125-0.2666015625,0.68359375t-0.2255859375,0.4169921875t-0.3076171875,0.2255859375t-0.5263671875,0.068359375q-0.0546875,0-0.19140625-0.013671875t-0.2939453125-0.0546875t-0.2666015625-0.109375t-0.109375-0.205078125z M284.9578125,55.4755859375q-0.0341796875-0.4580078125,0.0546875-0.8408203125t0.35546875-0.6220703125t0.8544921875-0.2392578125q0.13671875,0,0.3349609375,0.0341796875t0.3896484375,0.0888671875t0.3212890625,0.1640625t0.1298828125,0.30078125l0,1.544921875q0.533203125-0.615234375,1.162109375-0.8818359375t1.435546875-0.2666015625q0.615234375,0,1.216796875,0.2802734375t1.134765625,0.7451171875t0.9228515625,1.025390625t0.5673828125,1.12109375q0.109375-0.505859375,0.24609375-1.2373046875t0.4033203125-1.4013671875t0.7041015625-1.1484375t1.162109375-0.478515625q0.779296875,0,1.3125,0.560546875t0.8681640625,1.4560546875t0.505859375,2.0029296875t0.2529296875,2.1875t0.08203125,2.0166015625l0,1.4697265625q0,0.1640625-0.123046875,0.2666015625t-0.3076171875,0.1572265625t-0.3828125,0.068359375t-0.3076171875,0.013671875q-0.423828125,0-0.7724609375-0.1298828125t-0.3486328125-0.6630859375l0-1.23046875t-0.02734375-1.5927734375t-0.095703125-1.708984375t-0.177734375-1.5517578125t-0.2802734375-1.12109375t-0.4169921875-0.4375q-0.341796875,0-0.4921875,0.3828125t-0.2529296875,0.970703125t-0.1572265625,1.244140625t-0.150390625,1.244140625t-0.3076171875,0.9638671875t-0.5810546875,0.3759765625q-0.396484375,0-0.697265625-0.3759765625t-0.5947265625-0.9365234375t-0.587890625-1.203125t-0.6494140625-1.203125q-0.35546875-0.57421875-0.765625-0.9296875q-0.369140625-0.341796875-0.833984375-0.328125l-0.068359375,0q-0.615234375,0.02734375-0.9638671875,0.4443359375t-0.533203125,1.0185546875t-0.2255859375,1.2919921875t-0.041015625,1.2099609375q0,0.4921875,0.08203125,1.1484375q0.0546875,0.4375,0.0546875,0.833984375q0,0.205078125-0.013671875,0.396484375q-0.041015625,0.57421875-0.3076171875,0.9638671875t-0.9912109375,0.3896484375q-0.2734375,0-0.68359375-0.0546875t-0.546875-0.369140625q-0.314453125-0.560546875-0.478515625-1.4150390625t-0.24609375-1.763671875t-0.095703125-1.8046875t-0.013671875-1.5380859375q0-0.451171875-0.0341796875-0.9091796875z M302.20037109375,53.951171875q0-0.642578125,0.2529296875-0.9501953125t0.9228515625-0.3076171875q0.396484375,0,0.7451171875,0.1640625t0.3486328125,0.697265625q0.0546875,0.779296875,0.0546875,1.6337890625t0.150390625,1.6201171875q0.341796875-0.560546875,0.7724609375-1.12109375t0.9501953125-0.998046875t1.134765625-0.7041015625t1.33984375-0.2666015625q0.984375,0,1.66796875,0.41015625t1.1279296875,1.06640625t0.642578125,1.4833984375t0.1982421875,1.6611328125q0,1.28515625-0.3896484375,2.0986328125t-1.0322265625,1.2783203125t-1.4560546875,0.62890625t-1.6337890625,0.1640625q-0.724609375,0-1.353515625-0.2802734375t-0.875-1.0595703125q0-0.21875,0.3212890625-0.2734375t0.4580078125-0.0546875q0.451171875,0,0.669921875,0.24609375q0.1640625,0.19140625,0.3623046875,0.3896484375t0.4169921875,0.1982421875q0.423828125,0,0.888671875-0.2392578125t0.8544921875-0.62890625t0.65625-0.9228515625t0.2666015625-1.09375q0-0.478515625-0.08203125-1.189453125t-0.2802734375-1.3671875t-0.546875-1.134765625t-0.8818359375-0.478515625q-0.806640625,0-1.4560546875,0.73828125t-1.080078125,1.77734375t-0.669921875,2.16015625t-0.2392578125,1.873046875t0.095703125,1.900390625t0.1982421875,2.3857421875t0.1982421875,2.3857421875t0.095703125,1.900390625q0,0.19140625-0.1572265625,0.3076171875t-0.3759765625,0.1845703125t-0.4443359375,0.08203125t-0.3349609375,0.013671875q-0.369140625,0-0.7724609375-0.08203125t-0.5537109375-0.505859375q-0.19140625-0.669921875-0.35546875-1.9072265625t-0.2939453125-2.734375t-0.2255859375-3.14453125t-0.1640625-3.1787109375t-0.1025390625-2.802734375t-0.0341796875-2.0234375z M315.3071875,63.75390625q0-0.396484375,0.0341796875-0.833984375t0.0615234375-0.8203125l0.08203125-2.05078125q0.13671875-2.4609375,0.3349609375-4.83984375t0.3349609375-4.8125q0.08203125-1.33984375,0.123046875-2.6318359375t0.123046875-2.6318359375q-0.0546875-0.109375-0.0546875-0.150390625q0-0.19140625,0.1435546875-0.30078125t0.3349609375-0.1845703125t0.4033203125-0.1025390625t0.3212890625-0.02734375l0.314453125,0q0.423828125,0.0546875,0.615234375,0.2666015625t0.24609375,0.505859375t0.02734375,0.62890625t-0.02734375,0.6220703125q0,1.982421875-0.095703125,4.0400390625t-0.21875,4.12890625t-0.2255859375,4.142578125t-0.1025390625,4.0947265625l0,0.95703125q0,0.642578125-0.3623046875,0.84765625t-1.0048828125,0.205078125q-0.560546875,0-0.984375-0.24609375t-0.423828125-0.806640625z M321.57806640625,59.4609375q0-0.95703125,0.2119140625-2.255859375t0.7177734375-2.4609375t1.3330078125-1.9755859375t2.0849609375-0.8134765625q1.17578125,0,1.763671875,0.6767578125t0.587890625,1.8251953125q0,0.751953125-0.2802734375,1.6474609375t-0.7998046875,1.6953125t-1.23046875,1.3330078125t-1.5859375,0.533203125l-0.35546875-0.02734375q0,0.369140625,0.109375,0.9912109375t0.3212890625,1.2373046875t0.546875,1.080078125t0.8134765625,0.46484375q0.697265625,0,1.33984375-0.560546875t1.216796875-1.244140625t1.06640625-1.244140625t0.90234375-0.560546875q0.21875,0,0.451171875,0.068359375t0.259765625,0.3828125q0,0.19140625-0.1025390625,0.314453125t-0.1845703125,0.2734375q-0.423828125,0.724609375-0.9228515625,1.380859375t-1.1279296875,1.189453125t-1.3740234375,0.8408203125t-1.6474609375,0.3076171875q-1.17578125,0-1.955078125-0.4169921875t-1.2578125-1.12109375t-0.6904296875-1.626953125t-0.2119140625-1.9345703125z M324.02533203125,58.421875l0.3828125,0.341796875q0.2734375,0.24609375,0.546875,0.109375t0.4921875-0.4990234375t0.4033203125-0.8955078125t0.328125-1.09375t0.2119140625-1.09375t0.068359375-0.888671875l0-0.46484375t-0.041015625-0.4921875t-0.1435546875-0.3896484375t-0.3212890625-0.1982421875q-0.068359375-0.013671875-0.123046875-0.013671875q-0.46484375,0-0.79296875,0.587890625q-0.35546875,0.65625-0.57421875,1.5927734375t-0.314453125,1.9208984375t-0.123046875,1.4765625z M333.2903515625,64.369140625q0-0.451171875,0.0546875-0.916015625t0.2392578125-0.8408203125t0.533203125-0.6015625t0.9091796875-0.2255859375q0.396484375,0,0.62890625,0.1162109375t0.41015625,0.4716796875q-0.08203125,0.478515625-0.0546875,0.95703125t-0.0478515625,0.8681640625t-0.35546875,0.62890625t-1.0048828125,0.2392578125q-0.13671875,0-0.3623046875-0.041015625t-0.4375-0.1298828125t-0.3623046875-0.2119140625t-0.150390625-0.314453125z M333.2903515625,58.681640625q0-1.626953125,0.109375-3.28125t0.2392578125-3.3017578125t0.2392578125-3.2880859375t0.109375-3.294921875q0-0.451171875-0.041015625-0.9228515625t0.041015625-0.875t0.3623046875-0.65625t0.8955078125-0.2529296875q0.109375,0,0.3349609375,0.013671875t0.4375,0.0546875t0.3623046875,0.150390625t0.150390625,0.287109375l-0.02734375,0.08203125q0.0546875,0.560546875,0.0615234375,1.107421875t0.0068359375,1.09375q0,3.30859375-0.1845703125,6.5419921875t-0.1845703125,6.5419921875q0,0.2734375-0.1572265625,0.4443359375t-0.3623046875,0.2529296875t-0.4716796875,0.109375t-0.4716796875,0.02734375q-0.21875,0-0.4716796875-0.02734375t-0.46484375-0.109375t-0.3623046875-0.2529296875t-0.150390625-0.4443359375z"/></svg>
